<svg xmlns="http://www.w3.org/2000/svg" viewBox="0 0 100 100"><defs><style>.cls-1{isolation:isolate;}.cls-2{fill:#fff;}.cls-3{fill:#c3cfd6;}.cls-3,.cls-4{mix-blend-mode:multiply;}.cls-4,.cls-6{fill:#46b0ad;}.cls-5{fill:#8bcdfd;}.cls-7{fill:#942e53;}.cls-8{fill:none;stroke:#942e53;stroke-linecap:square;stroke-miterlimit:10;stroke-width:2px;}</style></defs><title>Flipbook</title><g class="cls-1"><g id="Ikone_simple" data-name="Ikone simple"><rect class="cls-2" width="100" height="100"/><polygon class="cls-3" points="100 81.65 81.65 100 50 100 50 0 100 0 100 81.65"/><rect class="cls-3" x="60.5" y="14" width="29" height="3.65"/><rect class="cls-3" x="60.5" y="22" width="29" height="3.65"/><rect class="cls-3" x="60.5" y="30" width="29" height="3.65"/><rect class="cls-3" x="60.5" y="38" width="29" height="3.65"/><circle class="cls-4" cx="75" cy="92" r="3.47"/><path class="cls-5" d="M22.7,48.21a2.74,2.74,0,0,1-.5,0Z"/><rect class="cls-3" x="7" y="14" width="36" height="67.65"/><circle class="cls-6" cx="25" cy="92" r="3.47"/><polygon class="cls-7" points="81.65 81.65 81.65 100 100 81.65 81.65 81.65"/><line class="cls-8" x1="27.17" y1="50" x2="75" y2="50"/><polygon class="cls-7" points="33.8 58.18 35.16 56.72 27.94 50 35.16 43.29 33.8 41.82 25 50 33.8 58.18"/></g></g></svg>